HIERARCHY
ROOT hip
{
  OFFSET 0 0 0
  CHANNELS 6 Xposition Yposition Zposition Zrotation Yrotation Xrotation
  JOINT abdomen
  {
    OFFSET 0 20.6881 -0.73152
    CHANNELS 3 Zrotation Xrotation Yrotation
    JOINT chest
    {
      OFFSET 0 11.7043 -0.48768
      CHANNELS 3 Zrotation Xrotation Yrotation
      JOINT neck
      {
        OFFSET 0 22.1894 -2.19456
        CHANNELS 3 Zrotation Xrotation Yrotation
        JOINT head
        {
          OFFSET -0.24384 7.07133 1.2192
          CHANNELS 3 Zrotation Xrotation Yrotation
          JOINT leftEye
          {
            OFFSET 4.14528 8.04674 8.04672
            CHANNELS 3 Zrotation Xrotation Yrotation
            End Site
            {
              OFFSET 1 0 0
            }
          }
          JOINT rightEye
          {
            OFFSET -3.6576 8.04674 8.04672
            CHANNELS 3 Zrotation Xrotation Yrotation
            End Site
            {
              OFFSET 1 0 0
            }
          }
        }
      }
      JOINT rCollar
      {
        OFFSET -2.68224 19.2634 -4.8768
        CHANNELS 3 Zrotation Xrotation Yrotation
        JOINT rShldr
        {
          OFFSET -8.77824 -1.95073 1.46304
          CHANNELS 3 Zrotation Xrotation Yrotation
          JOINT rForeArm
          {
            OFFSET -28.1742 -1.7115 0.48768
            CHANNELS 3 Zrotation Xrotation Yrotation
            JOINT rHand
            {
              OFFSET -22.5879 0.773209 7.07136
              CHANNELS 3 Zrotation Xrotation Yrotation
              JOINT rThumb1
              {
                OFFSET -1.2192 -0.487915 3.41376
                CHANNELS 3 Zrotation Xrotation Yrotation
                JOINT rThumb2
                {
                  OFFSET -3.37035 -0.52449 3.41376
                  CHANNELS 3 Zrotation Xrotation Yrotation
                  End Site
                  {
                    OFFSET -1.78271 -1.18214 1.43049
                  }
                }
              }
              JOINT rIndex1
              {
                OFFSET -7.75947 0.938293 5.60832
                CHANNELS 3 Zrotation Xrotation Yrotation
                JOINT rIndex2
                {
                  OFFSET -2.54057 -0.884171 1.56538
                  CHANNELS 3 Zrotation Xrotation Yrotation
                  End Site
                  {
                    OFFSET -1.62519 -0.234802 1.16502
                  }
                }
              }
              JOINT rMid1
              {
                OFFSET -8.24714 1.18213 3.41376
                CHANNELS 3 Zrotation Xrotation Yrotation
                JOINT rMid2
                {
                  OFFSET -3.10165 -0.590103 1.0647
                  CHANNELS 3 Zrotation Xrotation Yrotation
                  End Site
                  {
                    OFFSET -2.48547 -0.328903 0.83742
                  }
                }
              }
              JOINT rRing1
              {
                OFFSET -8.82822 0.546677 1.51678
                CHANNELS 3 Zrotation Xrotation Yrotation
                JOINT rRing2
                {
                  OFFSET -2.60934 -0.819778 -0.0198488
                  CHANNELS 3 Zrotation Xrotation Yrotation
                  End Site
                  {
                    OFFSET -2.33842 -0.294052 0.168128
                  }
                }
              }
              JOINT rPinky1
              {
                OFFSET -8.27202 -0.0477905 -0.4584
                CHANNELS 3 Zrotation Xrotation Yrotation
                JOINT rPinky2
                {
                  OFFSET -1.82734 -0.647385 -0.700984
                  CHANNELS 3 Zrotation Xrotation Yrotation
                  End Site
                  {
                    OFFSET -1.69225 -0.51767 -0.607171
                  }
                }
              }
            }
          }
        }
      }
      JOINT lCollar
      {
        OFFSET 2.68224 19.2634 -4.8768
        CHANNELS 3 Zrotation Xrotation Yrotation
        JOINT lShldr
        {
          OFFSET 8.77824 -1.95073 1.46304
          CHANNELS 3 Zrotation Xrotation Yrotation
          JOINT lForeArm
          {
            OFFSET 28.1742 -1.7115 0.48768
            CHANNELS 3 Zrotation Xrotation Yrotation
            JOINT lHand
            {
              OFFSET 22.5879 0.773209 7.07136
              CHANNELS 3 Zrotation Xrotation Yrotation
              JOINT lThumb1
              {
                OFFSET 1.2192 -0.487915 3.41376
                CHANNELS 3 Zrotation Xrotation Yrotation
                JOINT lThumb2
                {
                  OFFSET 3.37035 -0.52449 3.41376
                  CHANNELS 3 Zrotation Xrotation Yrotation
                  End Site
                  {
                    OFFSET 1.78271 -1.18214 1.43049
                  }
                }
              }
              JOINT lIndex1
              {
                OFFSET 7.75947 0.938293 5.60832
                CHANNELS 3 Zrotation Xrotation Yrotation
                JOINT lIndex2
                {
                  OFFSET 2.54057 -0.884171 1.56538
                  CHANNELS 3 Zrotation Xrotation Yrotation
                  End Site
                  {
                    OFFSET 1.62519 -0.234802 1.16502
                  }
                }
              }
              JOINT lMid1
              {
                OFFSET 8.24714 1.18213 3.41376
                CHANNELS 3 Zrotation Xrotation Yrotation
                JOINT lMid2
                {
                  OFFSET 3.10165 -0.590103 1.0647
                  CHANNELS 3 Zrotation Xrotation Yrotation
                  End Site
                  {
                    OFFSET 2.48547 -0.328903 0.83742
                  }
                }
              }
              JOINT lRing1
              {
                OFFSET 8.82822 0.546677 1.51678
                CHANNELS 3 Zrotation Xrotation Yrotation
                JOINT lRing2
                {
                  OFFSET 2.60934 -0.819778 -0.0198488
                  CHANNELS 3 Zrotation Xrotation Yrotation
                  End Site
                  {
                    OFFSET 2.33842 -0.294052 0.168128
                  }
                }
              }
              JOINT lPinky1
              {
                OFFSET 8.27202 -0.0477905 -0.4584
                CHANNELS 3 Zrotation Xrotation Yrotation
                JOINT lPinky2
                {
                  OFFSET 1.82734 -0.647385 -0.700984
                  CHANNELS 3 Zrotation Xrotation Yrotation
                  End Site
                  {
                    OFFSET 1.69225 -0.51767 -0.607171
                  }
                }
              }
            }
          }
        }
      }
    }
  }
  JOINT rButtock
  {
    OFFSET -8.77824 4.35084 1.2192
    CHANNELS 3 Zrotation Xrotation Yrotation
    JOINT rThigh
    {
      OFFSET 0 -1.70687 -2.19456
      CHANNELS 3 Zrotation Xrotation Yrotation
      JOINT rShin
      {
        OFFSET 0 -36.8199 0.73152
        CHANNELS 3 Zrotation Xrotation Yrotation
        JOINT rFoot
        {
          OFFSET 0.73152 -45.1104 -5.12064
          CHANNELS 3 Zrotation Xrotation Yrotation
          End Site
          {
            OFFSET -1.1221 -3.69964 12.103
          }
        }
      }
    }
  }
  JOINT lButtock
  {
    OFFSET 8.77824 4.35084 1.2192
    CHANNELS 3 Zrotation Xrotation Yrotation
    JOINT lThigh
    {
      OFFSET 0 -1.70687 -2.19456
      CHANNELS 3 Zrotation Xrotation Yrotation
      JOINT lShin
      {
        OFFSET 0 -36.8199 0.73152
        CHANNELS 3 Zrotation Xrotation Yrotation
        JOINT lFoot
        {
          OFFSET -0.73152 -45.1104 -5.12064
          CHANNELS 3 Zrotation Xrotation Yrotation
          End Site
          {
            OFFSET 1.1221 -3.69964 12.103
          }
        }
      }
    }
  }
}
MOTION
Frames:	9
Frame Time:	0.00833333
-75.6265 85.3572 194.481 0.0 0.0 0.0 1.31603 -0.00470372 0.0362372 0.363458 -0.00359445 0.0629617 2.15542e-14 0.0 -1.49088e-16 6.48783e-14 3.18055e-15 -4.00675e-16 -0.0 0.0 0.0 -0.0 0.0 0.0 1.07332e-14 -3.33896e-17 1.49089e-16 2.27457e-13 -4.84538e-16 -1.98785e-16 3.90423e-12 -1.18575e-12 -7.63333e-14 4.46159e-11 1.04809e-12 -2.54444e-13 1.05252e-10 -3.0245e-13 -6.9018e-13 1.8175e-10 -5.24792e-13 -1.19509e-12 1.05256e-10 -3.02153e-13 -6.99722e-13 7.73091 5.47488 0.417314 1.05251e-10 -3.02451e-13 -6.93361e-13 2.90554 0.965183 0.102902 1.05255e-10 -3.02848e-13 -6.90975e-13 10.2786 0.731801 0.0259123 1.05247e-10 -3.00562e-13 -6.80639e-13 2.22167 -0.733487 -0.20892 1.05375e-14 -3.57191e-17 -2.48481e-16 2.24313e-13 -6.70898e-16 -1.98785e-15 3.89176e-12 1.14401e-12 -5.40694e-14 4.46165e-11 -1.28875e-12 -2.51264e-13 1.05235e-10 -3.14403e-13 -6.9018e-13 1.81748e-10 -5.47055e-13 -1.19191e-12 1.05229e-10 -3.13285e-13 -6.80639e-13 -7.73091 5.47488 -0.417314 1.05235e-10 -3.14577e-13 -6.93361e-13 -2.90554 0.965183 -0.102902 1.05233e-10 -3.14279e-13 -6.90975e-13 -10.2786 0.731801 -0.0259123 1.05243e-10 -3.11297e-13 -7.02903e-13 -2.22167 -0.733487 0.20892 -2.03217e-16 0.0 -3.88251e-19 1.46248 -6.13859 -0.134754 0.00180475 5.56142 0.054176 -0.478198 0.57505 0.0659741 2.03217e-16 0.0 3.88251e-19 0.544971 -1.92085 0.00800073 0.00890838 -2.07861 0.0733663 0.452575 3.99724 -0.131501
-74.5398 82.7822 183.177 177.962 -0.8454 -170.554 0.121284 -0.370547 2.71573 0.39761 0.228007 0.809069 -0.585309 -4.90859 -0.969901 0.959312 8.81157 -2.85502 -0.0 0.0 0.0 -0.0 0.0 0.0 2.97066e-14 8.03352e-14 -4.27271e-15 20.3136 13.1924 -1.17063 -20.1956 -17.9572 15.16 0.0140692 2.63171 0.368455 -9.51728e-10 -5.23442e-09 1.25903e-09 -1.63595e-09 -9.06082e-09 2.18338e-09 -9.51724e-10 -5.23443e-09 1.25902e-09 7.73091 5.47488 0.417314 -9.5173e-10 -5.23443e-09 1.25903e-09 2.90554 0.965183 0.102902 -9.51724e-10 -5.23442e-09 1.25903e-09 10.2786 0.731801 0.0259123 -9.51734e-10 -5.23442e-09 1.25904e-09 2.22167 -0.733487 -0.20892 2.95604e-14 8.0332e-14 -4.64543e-15 -19.6128 14.7548 8.11252 22.3047 -20.1697 -14.9941 -0.0537402 5.15094 -0.713426 5.54927e-10 -1.47668e-10 -4.93522e-10 9.53744e-10 -2.82217e-10 -8.60756e-10 5.54924e-10 -1.47664e-10 -4.93512e-10 -7.73091 5.47488 -0.417314 5.54927e-10 -1.4767e-10 -4.93525e-10 -2.90554 0.965183 -0.102902 5.54925e-10 -1.47664e-10 -4.93523e-10 -10.2786 0.731801 -0.0259123 5.54933e-10 -1.47661e-10 -4.93533e-10 -2.22167 -0.733487 0.20892 -2.03217e-16 0.0 -3.88251e-19 2.46431 -4.43891 0.745416 0.04822 11.0836 0.21429 -0.401058 5.92989 -2.08246 2.03217e-16 0.0 3.88251e-19 0.468881 -13.3025 -1.04139 0.0152104 9.36722 -0.0686933 0.284629 8.79324 2.91527
-74.5501 83.5272 181.102 177.684 -1.1598 -170.387 -1.08248 -0.724582 5.54617 0.431659 0.460404 1.59714 -1.38965 -10.0845 -2.01692 2.96329 18.0245 -6.09184 -0.0 0.0 0.0 -0.0 0.0 0.0 5.01325e-14 1.71339e-13 -8.9919e-15 42.4273 27.126 -2.58977 -30.1397 -32.5348 35.9043 -0.00802181 5.41664 0.761006 -2.13705e-09 -1.11096e-08 2.67345e-09 -3.67434e-09 -1.92309e-08 4.63625e-09 -2.13704e-09 -1.11096e-08 2.67345e-09 7.73091 5.47488 0.417314 -2.13705e-09 -1.11096e-08 2.67345e-09 2.90554 0.965183 0.102902 -2.13704e-09 -1.11096e-08 2.67345e-09 10.2786 0.731801 0.0259123 -2.13705e-09 -1.11096e-08 2.67346e-09 2.22167 -0.733487 -0.20892 5.00397e-14 1.71335e-13 -9.33977e-15 -45.4224 29.2984 18.5777 32.5801 -36.494 -36.9799 0.0313424 10.6196 -1.49072 1.05934e-09 -3.03999e-10 -1.04112e-09 1.81975e-09 -5.82451e-10 -1.81587e-09 1.05934e-09 -3.0399e-10 -1.04111e-09 -7.73091 5.47488 -0.417314 1.05934e-09 -3.04003e-10 -1.04112e-09 -2.90554 0.965183 -0.102902 1.05934e-09 -3.03989e-10 -1.04112e-09 -10.2786 0.731801 -0.0259123 1.05934e-09 -3.03988e-10 -1.04113e-09 -2.22167 -0.733487 0.20892 -2.03217e-16 0.0 -3.88251e-19 3.47658 -2.6622 1.68305 0.0638607 16.9052 0.395488 0.111512 11.4327 -4.40138 2.03217e-16 0.0 3.88251e-19 -0.0973135 -25.3668 -2.29699 0.088296 21.6633 -0.2359 -0.468806 13.7948 6.31149
-74.6299 84.1965 179.022 177.257 -1.517 -170.148 -2.16593 -1.09254 8.07601 0.447824 0.690721 2.30143 -2.26861 -14.7086 -2.99734 5.75589 26.1568 -9.43791 -0.0 0.0 0.0 -0.0 0.0 0.0 6.76533e-14 2.41072e-13 -1.31163e-14 62.9624 39.5009 -4.43302 -29.8217 -37.008 59.035 -0.0601562 7.89383 1.11476 -3.06569e-09 -1.57027e-08 3.77846e-09 -5.27134e-09 -2.71814e-08 6.55253e-09 -3.06568e-09 -1.57027e-08 3.77847e-09 7.73091 5.47488 0.417314 -3.06569e-09 -1.57027e-08 3.77846e-09 2.90554 0.965183 0.102902 -3.06568e-09 -1.57027e-08 3.77847e-09 10.2786 0.731801 0.0259123 -3.0657e-09 -1.57027e-08 3.77847e-09 2.22167 -0.733487 -0.20892 6.76063e-14 2.41067e-13 -1.34393e-14 -74.1531 40.1521 31.4879 30.5819 -41.0893 -62.955 0.235771 15.443 -2.21152 1.45431e-09 -4.42376e-10 -1.47919e-09 2.49774e-09 -8.45557e-10 -2.57988e-09 1.45431e-09 -4.42364e-10 -1.47918e-09 -7.73091 5.47488 -0.417314 1.45431e-09 -4.42382e-10 -1.47919e-09 -2.90554 0.965183 -0.102902 1.45431e-09 -4.42363e-10 -1.47919e-09 -10.2786 0.731801 -0.0259123 1.45431e-09 -4.42362e-10 -1.47919e-09 -2.22167 -0.733487 0.20892 -2.03217e-16 0.0 -3.88251e-19 4.31142 -1.03963 2.49791 0.0414565 22.1273 0.564624 0.999593 16.5463 -6.62122 2.03217e-16 0.0 3.88251e-19 -1.18811 -36.0128 -3.77941 0.220481 32.2582 -0.413845 -1.64595 18.189 9.37779
-74.6539 84.8753 176.957 177.068 -1.7365 -169.919 -3.00695 -1.50265 9.85366 0.430473 0.916238 2.79616 -2.97083 -17.9692 -3.72914 8.45265 31.8417 -12.2566 -0.0 0.0 0.0 -0.0 0.0 0.0 7.79114e-14 2.57627e-13 -1.57537e-14 78.1838 48.0332 -6.59882 -28.3895 -34.0848 73.8388 -0.114453 9.60292 1.36251 -3.35263e-09 -1.70905e-08 4.10996e-09 -5.76483e-09 -2.95831e-08 7.12732e-09 -3.35263e-09 -1.70905e-08 4.10997e-09 7.73091 5.47488 0.417314 -3.35263e-09 -1.70905e-08 4.10996e-09 2.90554 0.965183 0.102902 -3.35262e-09 -1.70905e-08 4.10996e-09 10.2786 0.731801 0.0259123 -3.35264e-09 -1.70905e-08 4.10997e-09 2.22167 -0.733487 -0.20892 7.78912e-14 2.57623e-13 -1.60519e-14 -98.1076 45.6454 43.3962 28.3813 -37.3495 -79.2906 0.447158 18.6628 -2.72078 1.57568e-09 -5.35871e-10 -1.64341e-09 2.7057e-09 -1.01584e-09 -2.86613e-09 1.57568e-09 -5.35858e-10 -1.64341e-09 -7.73091 5.47488 -0.417314 1.57567e-09 -5.35877e-10 -1.64342e-09 -2.90554 0.965183 -0.102902 1.57567e-09 -5.35857e-10 -1.64342e-09 -10.2786 0.731801 -0.0259123 1.57568e-09 -5.35855e-10 -1.64342e-09 -2.22167 -0.733487 0.20892 -2.03217e-16 0.0 -3.88251e-19 4.8131 0.198794 3.00932 -0.00114041 25.8517 0.676746 2.00978 20.7657 -8.40079 2.03217e-16 0.0 3.88251e-19 -2.49243 -43.1579 -5.2602 0.343354 38.6008 -0.54877 -2.68868 21.2612 11.2807
-74.6963 85.4029 174.935 176.857 -1.9988 -169.681 -3.58129 -2.01438 10.5996 0.369664 1.13919 3.00331 -3.25939 -19.3327 -4.06487 9.91364 34.3213 -13.7246 -0.0 0.0 0.0 -0.0 0.0 0.0 7.85645e-14 1.78823e-13 -1.62347e-14 84.8528 51.2656 -8.3492 -28.292 -31.707 78.4032 -0.138199 10.2135 1.45198 -2.57045e-09 -1.31448e-08 3.14432e-09 -4.4199e-09 -2.27512e-08 5.45261e-09 -2.57044e-09 -1.31448e-08 3.14432e-09 7.73091 5.47488 0.417314 -2.57045e-09 -1.31448e-08 3.14432e-09 2.90554 0.965183 0.102902 -2.57044e-09 -1.31448e-08 3.14432e-09 10.2786 0.731801 0.0259123 -2.57045e-09 -1.31448e-08 3.14433e-09 2.22167 -0.733487 -0.20892 7.85384e-14 1.7882e-13 -1.65081e-14 -108.508 47.2484 48.9685 28.291 -34.7311 -84.4566 0.528456 19.6157 -2.8783 1.24579e-09 -5.64446e-10 -1.36068e-09 2.13838e-09 -1.04915e-09 -2.37262e-09 1.2458e-09 -5.64435e-10 -1.36067e-09 -7.73091 5.47488 -0.417314 1.24579e-09 -5.64451e-10 -1.36068e-09 -2.90554 0.965183 -0.102902 1.24579e-09 -5.64434e-10 -1.36068e-09 -10.2786 0.731801 -0.0259123 1.24579e-09 -5.64433e-10 -1.36069e-09 -2.22167 -0.733487 0.20892 -2.03217e-16 0.0 -3.88251e-19 4.8654 0.972265 3.10123 -0.0315048 27.3224 0.687243 2.80979 23.9503 -9.36482 2.03217e-16 0.0 3.88251e-19 -3.36918 -45.4147 -6.23104 0.354908 38.7464 -0.557234 -2.94823 22.5955 11.2268
-74.7366 85.8477 172.933 176.728 -2.2355 -169.445 -3.97581 -2.59978 10.6079 0.279857 1.36025 3.00474 -3.20726 -19.3449 -4.09786 10.1465 34.5847 -13.994 -0.0 0.0 0.0 -0.0 0.0 0.0 7.23299e-14 3.29011e-14 -1.51791e-14 84.86 50.7463 -9.33109 -28.2707 -31.8015 77.5736 -0.132663 10.0407 1.42678 -1.03273e-09 -5.42961e-09 1.26235e-09 -1.77577e-09 -9.39353e-09 2.1888e-09 -1.03273e-09 -5.42961e-09 1.26235e-09 7.73091 5.47488 0.417314 -1.03274e-09 -5.42961e-09 1.26235e-09 2.90554 0.965183 0.102902 -1.03273e-09 -5.42961e-09 1.26235e-09 10.2786 0.731801 0.0259123 -1.03274e-09 -5.4296e-09 1.26236e-09 2.22167 -0.733487 -0.20892 7.22751e-14 3.29008e-14 -1.54276e-14 -107.639 47.3227 48.8585 28.2602 -35.2502 -84.3224 0.488032 18.9526 -2.772 5.96835e-10 -5.46749e-10 -7.61708e-10 1.02286e-09 -9.84959e-10 -1.32742e-09 5.96839e-10 -5.46742e-10 -7.61699e-10 -7.73091 5.47488 -0.417314 5.96836e-10 -5.46752e-10 -7.61713e-10 -2.90554 0.965183 -0.102902 5.96831e-10 -5.46742e-10 -7.61716e-10 -10.2786 0.731801 -0.0259123 5.96836e-10 -5.46741e-10 -7.61726e-10 -2.22167 -0.733487 0.20892 -2.03217e-16 0.0 -3.88251e-19 4.61199 1.41093 2.89263 -0.0451983 27.191 0.620497 3.33884 26.4111 -9.70202 2.03217e-16 0.0 3.88251e-19 -3.64803 -44.2004 -6.6034 0.280542 34.4773 -0.470784 -2.53366 22.7063 9.7229
-74.76 86.2071 170.945 176.699 -2.442 -169.239 -4.23534 -3.157 10.2867 0.182219 1.57443 2.91451 -3.00495 -18.8168 -3.98865 9.79732 33.9458 -13.6988 -0.0 0.0 0.0 -0.0 0.0 0.0 6.24401e-14 -1.06412e-13 -1.3628e-14 82.0709 48.7027 -9.9086 -28.2791 -32.7842 74.4784 -0.11688 9.59323 1.36142 5.34e-10 2.43921e-09 -6.43404e-10 9.18385e-10 4.22986e-09 -1.11636e-09 5.34e-10 2.43922e-09 -6.43404e-10 7.73091 5.47488 0.417314 5.33995e-10 2.43921e-09 -6.43403e-10 2.90554 0.965183 0.102902 5.34e-10 2.43922e-09 -6.43404e-10 10.2786 0.731801 0.0259123 5.33994e-10 2.43922e-09 -6.43399e-10 2.22167 -0.733487 -0.20892 6.23569e-14 -1.0641e-13 -1.38516e-14 -102.157 46.8297 46.3242 28.2504 -37.0667 -82.0602 0.40828 17.6884 -2.57064 -7.06326e-11 -5.13878e-10 -1.38e-10 -1.24337e-10 -8.93e-10 -2.38966e-10 -7.06305e-11 -5.13876e-10 -1.37992e-10 -7.73091 5.47488 -0.417314 -7.06301e-11 -5.1388e-10 -1.38005e-10 -2.90554 0.965183 -0.102902 -7.06374e-11 -5.13876e-10 -1.3801e-10 -10.2786 0.731801 -0.0259123 -7.06304e-11 -5.13875e-10 -1.38023e-10 -2.22167 -0.733487 0.20892 -2.03217e-16 0.0 -3.88251e-19 4.29117 1.60206 2.55402 -0.0586816 26.6702 0.529194 3.73108 28.3312 -9.88382 2.03217e-16 0.0 3.88251e-19 -3.58912 -41.6499 -6.63556 0.200758 28.8332 -0.367187 -1.93319 22.3317 7.82009
-74.7634 86.4719 168.96 176.771 -2.6058 -169.089 -4.38772 -3.58092 10.0443 0.0961185 1.77662 2.84669 -2.85089 -18.559 -3.90116 9.60081 33.6967 -13.5346 -0.0 0.0 0.0 -0.0 0.0 0.0 5.21274e-14 -1.65391e-13 -1.26228e-14 80.6172 47.333 -10.6515 -28.3169 -33.0742 72.1907 -0.109129 9.37948 1.33022 1.40324e-09 6.8459e-09 -1.68039e-09 2.4134e-09 1.1859e-08 -2.91512e-09 1.40324e-09 6.8459e-09 -1.68039e-09 7.73091 5.47488 0.417314 1.40323e-09 6.8459e-09 -1.68039e-09 2.90554 0.965183 0.102902 1.40323e-09 6.84591e-09 -1.68039e-09 10.2786 0.731801 0.0259123 1.40323e-09 6.84591e-09 -1.68039e-09 2.22167 -0.733487 -0.20892 5.20392e-14 -1.65387e-13 -1.28216e-14 -98.9047 46.567 44.7632 28.3196 -38.1418 -80.6521 0.360901 16.8391 -2.43789 -4.5605e-10 -4.96933e-10 2.18953e-10 -7.86723e-10 -8.43012e-10 3.84277e-10 -4.56049e-10 -4.96933e-10 2.18959e-10 -7.73091 5.47488 -0.417314 -4.56047e-10 -4.96934e-10 2.18946e-10 -2.90554 0.965183 -0.102902 -4.56055e-10 -4.96934e-10 2.18941e-10 -10.2786 0.731801 -0.0259123 -4.56048e-10 -4.96933e-10 2.18927e-10 -2.22167 -0.733487 0.20892 -2.03217e-16 0.0 -3.88251e-19 4.13526 1.63266 2.2563 -0.0831873 26.9731 0.463724 4.22219 29.876 -10.4296 2.03217e-16 0.0 3.88251e-19 -3.53594 -39.8884 -6.63153 0.158059 24.8537 -0.294962 -1.57253 22.2543 6.55037
